<svg width="256" height="256" viewBox="0 0 256 256" fill="none" xmlns="http://www.w3.org/2000/svg">
<path d="M138.782 169.39C135.879 170.329 134.303 173.423 135.243 176.323C136.183 179.224 139.28 180.826 142.183 179.859C151.97 176.682 160.181 170.44 165.959 162.347C171.71 154.281 175 144.393 175 133.897C175 128.29 174.032 122.848 172.291 117.766C170.466 112.49 167.784 107.657 164.439 103.458C162.531 101.083 159.075 100.696 156.698 102.574C154.32 104.48 153.905 107.933 155.813 110.308C158.412 113.595 160.485 117.324 161.868 121.329C163.195 125.196 163.941 129.422 163.941 133.869C163.941 142.045 161.37 149.724 156.947 155.939C152.523 162.153 146.247 166.96 138.782 169.39ZM141.879 99.536C142.653 99.9777 143.565 100.199 144.533 100.199C147.574 100.199 150.035 97.7404 150.035 94.6745V8.18298C150.035 5.14462 147.574 2.6587 144.533 2.6587C141.464 2.6587 139.003 5.14462 139.003 8.18298V86.9959C138.533 86.8852 138.063 86.7748 137.593 86.6645C134.469 86.0014 131.262 85.6423 128.028 85.6423C115.006 85.6423 103.256 91.0562 94.7406 99.8122C86.2529 108.568 81 120.611 81 133.869C81 158.397 100.74 174.997 118.932 190.272C132.672 201.818 145.39 212.507 145.39 223.721C145.39 228.776 143.427 233.306 140.275 236.565C137.123 239.797 132.783 241.813 128 241.813C123.217 241.813 118.877 239.825 115.752 236.593C112.573 233.334 110.61 228.804 110.61 223.749C110.61 223.114 110.638 221.953 110.665 221.097C110.693 220.13 110.721 219.164 110.748 218.832C110.942 215.794 108.619 213.197 105.578 213.004C102.537 212.811 99.9382 215.131 99.7447 218.169C99.7447 218.335 99.7171 219.495 99.6618 220.794C99.6065 222.423 99.5788 223.611 99.5788 223.721C99.5788 231.732 102.758 238.968 107.873 244.244C113.015 249.547 120.121 252.834 128 252.834C135.879 252.834 142.985 249.547 148.155 244.244C153.269 238.996 156.449 231.732 156.449 223.721C156.449 207.452 141.796 195.133 126.037 181.875C109.725 168.175 92.0588 153.315 92.0588 133.869C92.0588 123.567 96.0953 114.23 102.62 107.519C109.117 100.834 118.102 96.6908 128 96.6908C130.516 96.6908 132.949 96.9395 135.299 97.4368C137.593 97.934 139.778 98.6245 141.879 99.536ZM105.053 75.9197C105.053 78.9581 107.541 81.4439 110.582 81.4439C113.623 81.4439 116.112 78.9581 116.112 75.9197V7.79628C116.112 4.75792 113.623 2.272 110.582 2.272C107.541 2.272 105.053 4.75792 105.053 7.79628V75.9197Z" fill="#D75212"/>
</svg>
