<svg width="320" height="426" viewBox="0 0 320 426" fill="none" xmlns="http://www.w3.org/2000/svg">
<rect x="-288" width="814" height="426" fill="url(#paint0_radial_327_12)"/>
<path fill-rule="evenodd" clip-rule="evenodd" d="M298.138 426L596.638 48H325.118L26.2139 426H298.138Z" fill="url(#paint1_linear_327_12)"/>
<g clip-path="url(#clip0_327_12)">
<path fill-rule="evenodd" clip-rule="evenodd" d="M262.141 238.067C261.689 239.467 260.806 240.687 259.619 241.551C258.433 242.415 257.003 242.879 255.537 242.875H246.221C246.312 243.778 246.144 250.132 246.343 251.764C248.501 261.243 262.435 266.343 263.878 279.729C264.665 287.041 263.304 296.97 256.807 301.748C249.335 307.587 239.307 309.591 230.3 306.669C215.991 301.998 215.249 290.157 216.006 276.521C216.361 273.661 215.432 271.728 216.133 269.8C218.937 268.694 220.562 270.269 221.853 271.794C223.1 273.226 223.973 274.947 224.393 276.802L226.023 284.726C227.166 290.264 233.165 292.228 238.128 291.121C242.096 290.468 245.012 288.102 245.367 284.492C245.517 283.073 245.386 281.638 244.982 280.27C244.577 278.902 243.907 277.628 243.01 276.521C242.05 274.731 240.298 273.023 238.641 270.58C236.716 267.72 233.15 264.742 232.688 252.421L232.779 242.88H223.463C221.997 242.882 220.569 242.417 219.383 241.553C218.196 240.689 217.313 239.471 216.859 238.072L201.62 191.575C201.203 190.266 200.988 188.9 200.985 187.526C200.982 186.305 201.153 185.089 201.493 183.916C203.616 176.542 209.443 165.012 212.638 157.445C213.169 156.181 214.059 155.102 215.198 154.344C216.336 153.586 217.672 153.181 219.038 153.182H219.181V0H224.261V153.176H254.739V0H259.819V153.176H259.962C261.327 153.178 262.663 153.583 263.801 154.341C264.939 155.099 265.83 156.177 266.362 157.44C269.542 165.007 275.369 176.537 277.492 183.911C277.839 185.082 278.01 186.299 278 187.521C278.004 188.896 277.789 190.263 277.365 191.57L262.141 238.067Z" fill="black"/>
</g>
<defs>
<radialGradient id="paint0_radial_327_12" cx="0" cy="0" r="1" gradientUnits="userSpaceOnUse" gradientTransform="translate(252.79 174.332) rotate(77.7566) scale(321.571 405.058)">
<stop stop-color="#FB5607"/>
<stop offset="1"/>
</radialGradient>
<linearGradient id="paint1_linear_327_12" x1="277.819" y1="48" x2="277.819" y2="511" gradientUnits="userSpaceOnUse">
<stop stop-color="#FB5607"/>
<stop offset="1" stop-color="#FB5607" stop-opacity="0"/>
</linearGradient>
<clipPath id="clip0_327_12">
<rect width="77" height="308" fill="white" transform="translate(201)"/>
</clipPath>
</defs>
</svg>
