<svg width="1920" height="651" viewBox="0 0 1920 651" fill="none" xmlns="http://www.w3.org/2000/svg">
<rect y="1" width="1920" height="650" fill="url(#paint0_radial_205_59)"/>
<path fill-rule="evenodd" clip-rule="evenodd" d="M1001.88 651L1515.17 1H1133.99L620 651H1001.88Z" fill="url(#paint1_radial_205_59)" fill-opacity="0.3"/>
<path d="M1353.21 262.701C1348.57 264.198 1346.06 269.13 1347.56 273.754C1349.06 278.378 1354 280.932 1358.63 279.391C1374.25 274.327 1387.35 264.374 1396.57 251.472C1405.75 238.613 1411 222.848 1411 206.114C1411 197.174 1409.46 188.499 1406.68 180.396C1403.76 171.985 1399.49 164.279 1394.15 157.585C1391.1 153.798 1385.59 153.182 1381.79 156.176C1378 159.215 1377.34 164.719 1380.38 168.506C1384.53 173.747 1387.84 179.692 1390.04 186.077C1392.16 192.242 1393.35 198.98 1393.35 206.07C1393.35 219.105 1389.25 231.347 1382.19 241.255C1375.13 251.163 1365.12 258.826 1353.21 262.701ZM1358.15 151.332C1359.38 152.037 1360.84 152.389 1362.38 152.389C1367.24 152.389 1371.16 148.47 1371.16 143.582V3.68802C1371.16 -1.15602 1365.83 2.88225 1362.38 2.88068C1358.92 2.8791 1353.56 -1.15602 1353.56 3.68802V131.339C1352.81 131.163 1352.06 130.987 1351.31 130.811C1346.32 129.754 1341.21 129.182 1336.04 129.182C1315.26 129.182 1296.51 137.813 1282.93 151.772C1269.38 165.732 1261 184.932 1261 206.07C1261 245.174 1292.5 271.64 1321.53 295.993C1343.46 314.4 1363.75 331.442 1363.75 349.321C1363.75 357.38 1360.62 364.602 1355.59 369.798C1350.56 374.95 1343.63 378.165 1336 378.165C1328.37 378.165 1321.44 374.994 1316.46 369.842C1311.38 364.646 1308.25 357.424 1308.25 349.365C1308.25 348.352 1308.29 346.503 1308.34 345.138C1308.38 343.596 1308.43 342.055 1308.47 341.527C1308.78 336.683 1305.07 332.543 1300.22 332.235C1295.37 331.927 1291.22 335.626 1290.91 340.47C1290.91 340.734 1290.87 342.583 1290.78 344.653C1290.69 347.251 1290.65 349.145 1290.65 349.321C1290.65 362.092 1295.72 373.629 1303.88 382.04C1312.09 390.495 1323.43 395.736 1336 395.736C1348.57 395.736 1359.91 390.495 1368.16 382.04C1376.32 373.673 1381.4 362.092 1381.4 349.321C1381.4 323.383 1358.01 303.743 1332.87 282.605C1306.84 260.763 1278.65 237.072 1278.65 206.07C1278.65 189.644 1285.09 174.76 1295.5 164.059C1305.87 153.402 1320.21 146.796 1336 146.796C1340.01 146.796 1343.9 147.193 1347.65 147.985C1351.31 148.778 1354.79 149.879 1358.15 151.332ZM1299.38 113.681C1299.38 118.525 1303.35 122.488 1308.21 122.488C1313.06 122.488 1317.03 118.525 1317.03 113.681V3.0715C1317.03 -1.77253 1308.21 3.26416 1308.21 3.26416C1308.21 3.26416 1299.38 -1.77253 1299.38 3.0715V113.681Z" fill="#D75212"/>
<defs>
<radialGradient id="paint0_radial_205_59" cx="0" cy="0" r="1" gradientUnits="userSpaceOnUse" gradientTransform="translate(1212.5 368) rotate(130.004) scale(369.453 329.635)">
<stop offset="0.344314" stop-color="#FB5607"/>
<stop offset="1" stop-color="#D75212"/>
</radialGradient>
<radialGradient id="paint1_radial_205_59" cx="0" cy="0" r="1" gradientUnits="userSpaceOnUse" gradientTransform="translate(1045 349) rotate(132.321) scale(408.447 224.761)">
<stop stop-color="white"/>
<stop offset="1" stop-color="white" stop-opacity="0"/>
</radialGradient>
</defs>
</svg>
