<svg width="151" height="485" viewBox="0 0 151 485" fill="none" xmlns="http://www.w3.org/2000/svg">
<path d="M92.8206 134.688C88.1573 133.175 85.6259 128.191 87.1359 123.519C88.6459 118.847 93.62 116.267 98.2832 117.824C114.005 122.941 127.195 132.997 136.477 146.034C145.715 159.027 151 174.956 151 191.864C151 200.897 149.446 209.663 146.648 217.85C143.716 226.348 139.409 234.135 134.035 240.898C130.97 244.725 125.419 245.348 121.599 242.322C117.78 239.252 117.114 233.69 120.178 229.863C124.353 224.568 127.684 218.562 129.904 212.11C132.036 205.88 133.235 199.073 133.235 191.909C133.235 178.738 129.105 166.368 121.999 156.357C114.893 146.346 104.812 138.603 92.8206 134.688ZM97.7947 247.217C99.0382 246.505 100.504 246.149 102.058 246.149C106.944 246.149 110.896 250.109 110.896 255.048V475.211C110.896 480.106 106.944 484.11 102.058 484.11C97.1285 484.11 93.1759 480.106 93.1759 475.211V267.418C92.4209 267.596 91.6659 267.774 90.9109 267.952C85.8923 269.019 80.7406 269.598 75.5444 269.598C54.6265 269.598 35.7515 260.877 22.0726 246.772C8.43824 232.667 0 213.267 0 191.909C0 152.397 31.71 125.655 60.9329 101.049C83.0056 82.4501 103.435 65.2304 103.435 47.1653C103.435 39.0226 100.282 31.7253 95.2188 26.4749C90.1559 21.2689 83.1832 18.0208 75.5 18.0208C67.8168 18.0208 60.8441 21.2244 55.8256 26.4304C50.7182 31.6809 47.565 38.9781 47.565 47.1208C47.565 48.1442 47.6094 50.013 47.6538 51.3923C47.6982 52.9497 47.7426 54.507 47.7871 55.0409C48.0979 59.9354 44.3674 64.118 39.4821 64.4295C34.5968 64.7409 30.4221 61.0033 30.1112 56.1088C30.1112 55.8419 30.0668 53.9731 29.9779 51.8818C29.8891 49.2565 29.8447 47.3432 29.8447 47.1653C29.8447 34.2616 34.9521 22.6038 43.1682 14.1052C51.4288 5.56204 62.8426 0.26709 75.5 0.26709C88.1573 0.26709 99.5712 5.56204 107.876 14.1052C116.092 22.5593 121.2 34.2616 121.2 47.1653C121.2 73.3731 97.6615 93.218 72.3468 114.576C46.1438 136.646 17.7647 160.584 17.7647 191.909C17.7647 208.506 24.2488 223.545 34.73 234.357C45.1668 245.125 59.6006 251.8 75.5 251.8C79.5415 251.8 83.4497 251.399 87.2247 250.598C90.9109 249.797 94.4194 248.685 97.7947 247.217ZM38.6382 285.26C38.6382 280.366 42.6353 276.361 47.5206 276.361C52.4059 276.361 56.4029 280.366 56.4029 285.26V475.834C56.4029 480.729 52.4059 484.733 47.5206 484.733C42.6353 484.733 38.6382 480.729 38.6382 475.834V285.26Z" fill="#818181"/>
</svg>
