<svg width="240" height="46" viewBox="0 0 240 46" fill="none" xmlns="http://www.w3.org/2000/svg">
<g clip-path="url(#clip0_88_25)">
<path d="M119.214 8.10905H220.78C223.237 8.10905 225.67 8.59296 227.94 9.53315C230.21 10.4733 232.272 11.8514 234.009 13.5886C235.747 15.3259 237.125 17.3883 238.065 19.6581C239.005 21.9279 239.489 24.3607 239.489 26.8175C239.489 29.2743 239.005 31.7071 238.065 33.9769C237.125 36.2467 235.747 38.3091 234.009 40.0464C232.272 41.7836 230.21 43.1616 227.94 44.1018C225.67 45.042 223.237 45.5259 220.78 45.5259H119.214C118.708 45.5259 118.223 45.325 117.865 44.9672C117.507 44.6095 117.306 44.1242 117.306 43.6183V10.0167C117.306 9.51075 117.507 9.02554 117.865 8.66779C118.223 8.31004 118.708 8.10905 119.214 8.10905Z" fill="white"/>
<path d="M120.529 45.832H18.8549C13.8543 45.832 9.05847 43.8455 5.52248 40.3095C1.9865 36.7735 2.81046e-07 31.9777 2.81046e-07 26.977C-0.000427264 24.5007 0.486955 22.0485 1.43431 19.7605C2.38167 17.4726 3.77045 15.3936 5.52133 13.6425C7.27222 11.8913 9.35091 10.5021 11.6387 9.55438C13.9265 8.60662 16.3786 8.11882 18.8549 8.11882H120.529V45.832Z" fill="black"/>
<path d="M234.476 13.6431C232.727 11.8846 230.647 10.49 228.356 9.54014C226.065 8.59026 223.609 8.10385 221.129 8.10905H158.48L157.503 9.33957H221.145C225.82 9.33957 230.304 11.1968 233.61 14.5026C236.916 17.8084 238.773 22.2921 238.773 26.9672C238.773 31.6424 236.916 36.1261 233.61 39.4319C230.304 42.7377 225.82 44.5949 221.145 44.5949H121.646V9.34934H146.93L147.906 8.11882H120.418V45.8352H221.145C224.876 45.8374 228.523 44.7331 231.626 42.6619C234.729 40.5907 237.148 37.6457 238.577 34.1995C240.005 30.7533 240.38 26.9607 239.653 23.3016C238.926 19.6425 237.13 16.2813 234.492 13.6431H234.476Z" fill="black"/>
<path d="M141.653 27.2114L163.2 0H156.041L134.478 27.1951L141.653 27.2114Z" fill="#FB5607"/>
<path d="M153.017 40.2328L141.637 27.1951H134.478L145.904 40.2328H153.017Z" fill="black"/>
<path d="M38.1656 35.2944C35.8413 37.2476 32.5002 38.3327 28.1424 38.5498V41.3526H22.6442V38.5107C18.2625 38.2741 14.9116 37.1793 12.5917 35.226C10.2717 33.2728 9.10628 30.6078 9.09543 27.2309C9.09543 23.8324 10.2587 21.1684 12.5852 19.2391C14.9116 17.3097 18.2646 16.2083 22.6442 15.9349V13.2753H28.1424V15.8958C32.4981 16.1432 35.8391 17.2511 38.1656 19.2195C40.4921 21.1879 41.6554 23.8584 41.6554 27.2309C41.6554 30.649 40.4921 33.3369 38.1656 35.2944ZM22.6442 33.8751V20.6226C20.0117 20.8678 18.0585 21.5254 16.7845 22.5953C15.5106 23.6652 14.8769 25.2105 14.8834 27.2309C14.8899 31.1178 17.4768 33.3325 22.6442 33.8751ZM33.976 31.8633C35.2564 30.7673 35.8967 29.2102 35.8967 27.1919C35.8967 23.2551 33.3119 21.0653 28.1424 20.6226V33.8751C30.7532 33.6277 32.6977 32.9571 33.976 31.8633Z" fill="white"/>
<path d="M48.6315 36.4631C47.0165 35.6381 45.6636 34.3788 44.7251 32.8269C43.8058 31.2195 43.3222 29.4 43.3222 27.5483C43.3222 25.6967 43.8058 23.8771 44.7251 22.2698C45.6627 20.7171 47.0158 19.4576 48.6315 18.6336C50.379 17.7711 52.3016 17.3226 54.2503 17.3226C56.199 17.3226 58.1215 17.7711 59.869 18.6336C61.4727 19.4639 62.8148 20.7226 63.7461 22.2698C64.6654 23.8771 65.149 25.6967 65.149 27.5483C65.149 29.4 64.6654 31.2195 63.7461 32.8269C62.8133 34.3729 61.4716 35.6312 59.869 36.4631C58.1211 37.3241 56.1987 37.7718 54.2503 37.7718C52.3018 37.7718 50.3794 37.3241 48.6315 36.4631ZM57.8962 31.554C58.8403 30.5546 59.3156 29.2232 59.3156 27.5467C59.3156 25.8702 58.8403 24.5388 57.8962 23.5426C57.4298 23.0513 56.8646 22.6641 56.2379 22.4066C55.6113 22.1491 54.9372 22.027 54.26 22.0484C53.58 22.0278 52.9033 22.1501 52.2735 22.4075C51.6438 22.6649 51.0751 23.0516 50.6043 23.5426C49.6429 24.5388 49.1633 25.8734 49.1654 27.5467C49.1654 29.2232 49.644 30.5546 50.6043 31.554C51.0751 32.0451 51.6438 32.4318 52.2735 32.6892C52.9033 32.9466 53.58 33.0689 54.26 33.0482C54.9372 33.0696 55.6113 32.9475 56.2379 32.69C56.8646 32.4325 57.4298 32.0454 57.8962 31.554Z" fill="white"/>
<path d="M66.7866 17.6179H72.5062V25.3689H81.1426V17.6179H86.9013V37.4755H81.1426V30.0533H72.5062V37.4755H66.7866V17.6179Z" fill="white"/>
<path d="M93.8775 40.835V37.4787H107.833V40.835H113.182V32.752H110.34V17.6179H93.0311L92.7707 24.4834C92.647 27.1159 92.3518 29.1462 91.8852 30.5742C91.4186 32.0022 90.5701 32.7281 89.3396 32.752H88.5257V40.835H93.8775ZM97.5137 29.8352C97.7823 28.1996 97.9367 26.5473 97.976 24.8903L98.0867 22.3414H104.597V32.7585H96.2051C96.8431 32.0901 97.2793 31.1156 97.5137 29.8352Z" fill="white"/>
<path d="M134.361 14.3821H128.417V40.2197H134.361V14.3821Z" fill="black"/>
<path d="M170.476 15.528C172.068 16.208 173.426 17.3397 174.382 18.7833C175.27 20.2875 175.739 22.0024 175.739 23.7493C175.739 25.4962 175.27 27.2112 174.382 28.7154C173.432 30.164 172.072 31.2972 170.476 31.9707C168.59 32.7588 166.559 33.1415 164.515 33.0938H159.307V40.2197H153.333V14.3919H164.515C166.56 14.3417 168.592 14.729 170.476 15.528ZM168.282 27.0616C169.217 26.2869 169.685 25.1866 169.685 23.7607C169.685 22.3349 169.217 21.2205 168.282 20.4175C167.344 19.6427 165.978 19.2553 164.183 19.2553H159.3V28.2271H164.183C165.991 28.2271 167.357 27.8386 168.282 27.0616Z" fill="black"/>
<path d="M192.938 34.6857H180.942L178.663 40.2197H172.527L184.044 14.3919H189.949L201.502 40.2328H195.216L192.938 34.6857ZM191.056 30.1282L186.957 20.2515L182.862 30.1445L191.056 30.1282Z" fill="black"/>
<path d="M226.419 14.3919V40.2328H220.439V29.6269H208.7V40.223H202.72V14.3919H208.7V24.5811H220.439V14.3919H226.419Z" fill="black"/>
</g>
<defs>
<clipPath id="clip0_88_25">
<rect width="240" height="45.8319" fill="white"/>
</clipPath>
</defs>
</svg>
